<svg id="Layer_2" data-name="Layer 2" xmlns="http://www.w3.org/2000/svg" viewBox="0 0 320.92 164.4"><defs><style>.cls-1{fill:#22b473;}</style></defs><title>oh-hi_Logo_2</title><polygon class="cls-1" points="139.02 103.06 139.03 103.06 139.02 103.06 139.02 103.06"/><path class="cls-1" d="M136.82,111.09l-1,0C136.17,111.12,136.49,111.11,136.82,111.09Z"/><path class="cls-1" d="M178.91,84.22l0-.1Z"/><path class="cls-1" d="M135.6,111.12h0Z"/><path class="cls-1" d="M178.88,84.28l0-.06Z"/><polygon class="cls-1" points="139.03 103.07 139.03 103.06 139.02 103.06 139.03 103.07"/><path class="cls-1" d="M102.74,65.68A40.13,40.13,0,0,1,90.08,71.5a20.77,20.77,0,0,0-1.48-8C83.13,50.29,67.27,50.86,56.67,57S39.44,74.58,38.19,85.64c-1.14,10.49,2.74,20.3,13.34,24.18,13.46,5.13,34.67-4.9,38-30.91a55.82,55.82,0,0,0,13.57-9.35ZM59.52,102.75c-8.23-4.62-6.41-21.91-2.39-32.67C59,81.45,67.7,83.36,75.64,82.59,72.55,100.54,64.89,105.88,59.52,102.75Zm6-37.19a9,9,0,0,1-.28-1.07l0-.14c-0.48-2.77.92-3.89,0.92-3.89,0.76-.61,2-0.71,3.86.5,2.73,1.88,4.88,5.76,5.77,9.86l0,3.26A11.25,11.25,0,0,1,65.48,65.56Z"/><path class="cls-1" d="M179.31,53.74a63.06,63.06,0,0,0-7.81-17.18,72.66,72.66,0,0,0-12.34-14.31,82,82,0,0,0-15.43-10.89A90.55,90.55,0,0,0,126.33,4,94.11,94.11,0,0,0,107.85.42a106,106,0,0,0-18.76,0A100.12,100.12,0,0,0,70.67,3.76a103.22,103.22,0,0,0-17.4,6.72,88.09,88.09,0,0,0-15.73,10A76,76,0,0,0,24.38,33.62c-1,1.2-1.84,2.52-2.76,3.77s-1.73,2.6-2.46,4A64.81,64.81,0,0,0,15,49.79,60.13,60.13,0,0,0,10.9,68.13c-0.09,1.56-.16,3.19-0.13,4.71S10.89,76,11,77.59a59.5,59.5,0,0,0,1.69,9.34,63.16,63.16,0,0,0,7.05,16.33c-5.59,9.68-11.08,19.42-16.61,29.13L0,137.94l6-2.43c10.36-4.22,20.75-8.37,31.07-12.65,2.07,1.59,4.17,3.14,6.38,4.52A80.12,80.12,0,0,0,51.46,132c1.38,0.7,2.8,1.3,4.19,2s2.84,1.19,4.29,1.73c2.89,1.06,5.81,2,8.79,2.83,1.48,0.42,3,.79,4.48,1.11s3,0.62,4.52.88c3,0.52,6.08.87,9.14,1.12,1.53,0.14,3.06.17,4.59,0.26s3.06,0,4.59.06c3.12-.11,6-0.17,9.14-0.52l2.3-.22,2.27-.33c1.51-.24,3-0.4,4.53-0.74s3-.59,4.49-0.94l4.43-1.18c2.92-.91,5.82-1.85,8.65-3,1.43-.52,2.81-1.18,4.2-1.81l2.08-.95,2-1.06c1.35-.7,2.71-1.4,4-2.21s2.64-1.52,3.88-2.41a83.18,83.18,0,0,0,7.29-5.46c1.13-1,2.3-2,3.4-3s2.16-2.13,3.21-3.21l3-3.41,2.76-3.59-0.36-.28-3,3.36-3.17,3.17-3.34,3c-1.14,1-2.34,1.85-3.5,2.77a87.27,87.27,0,0,1-7.42,4.93c-1.24.81-2.58,1.47-3.88,2.18s-2.64,1.36-4,2l-2,.95-2.06.83c-1.37.55-2.74,1.13-4.15,1.58-2.78,1-5.64,1.8-8.49,2.57l-4.32,1c-1.44.3-2.91,0.52-4.36,0.79s-2.92.4-4.39,0.6l-2.2.26-2.19.15c-2.85.26-6,.25-8.86,0.28-1.47-.06-2.95-0.08-4.42-0.17s-2.94-.19-4.4-0.36c-2.93-.32-5.84-0.73-8.72-1.3-1.44-.28-2.88-0.57-4.3-0.93S71.37,134.44,70,134c-2.83-.78-5.6-1.75-8.33-2.79-1.37-.53-2.7-1.13-4.05-1.69s-2.66-1.22-4-1.9c-2.59-1.36-5.17-2.74-7.61-4.34a83.84,83.84,0,0,1-7.12-5.08l-1.14-.89-1.3.53c-8.81,3.62-17.57,7.35-26.34,11.06,4.53-8.25,9.08-16.49,13.55-24.77l0.56-1-0.63-.94A60.56,60.56,0,0,1,15.95,86a54.87,54.87,0,0,1-2.41-17.78A56.85,56.85,0,0,1,16.88,50.5a61,61,0,0,1,8.7-16,70.72,70.72,0,0,1,12.8-13A79.55,79.55,0,0,1,54,11.92,93.44,93.44,0,0,1,89.27,3.39a106.79,106.79,0,0,1,35.88,4.52,98.18,98.18,0,0,1,16.67,6.95,83.1,83.1,0,0,1,14.86,10.2A71.21,71.21,0,0,1,168.75,38.4a62.22,62.22,0,0,1,8,16.1,57.35,57.35,0,0,1,2.82,17.82c0,1.23-.12,2.46-0.23,3.69-0.63,5.2-2.81,14.11-10.2,20.37a51.94,51.94,0,0,1-11.86,7.22,45,45,0,0,1-7.69,2.73c-9.88,2.38-10.57-3.06-10.59-3.26h0a9.23,9.23,0,0,1-.17-5c1.41-7.25,2.81-15.29,4.13-22.94l0.34-2c3-15.74-3.3-22.16-11.49-21.73-4.9.26-10.48,3-15.19,7.61,1.44-8.74,3.19-17.91,5.06-28.27L122,29c0-.2.05-0.39,0.09-0.59,2.64-17.25-17-20.65-29.89-7.78,13-6.23,14.12.27,14.12,0.27h0a9.23,9.23,0,0,1,.17,5c-1.41,7.25-2.81,15.29-4.13,22.94L89.83,110.6h16.11l7.58-38,0.65-3.27A30.41,30.41,0,0,1,117,65.06c4.16-5.35,9.55-8.74,11.44-6.15,0.72,1,.93,2.85.35,5.84l0,0.24c-1.44,8.74-3.19,17.91-5.06,28.27l-0.46,2.3h0.07c-1.54,10.06,4.5,15.4,12.36,15.55h0.24l1,0h0c14.29-.29,24.13-5.51,30.7-11.29h0s10.55-7.64,13-21.18l0-.35q0.55-2.91.82-5.86A55.59,55.59,0,0,0,179.31,53.74Z"/><path class="cls-1" d="M270.79,70.9a8.64,8.64,0,0,0,2.94-6.58,8.9,8.9,0,0,0-2.82-6.58,8.6,8.6,0,0,0-6.47-2.7,9.32,9.32,0,0,0-6.7,2.7,9.77,9.77,0,0,0-2.7,6.58,9.15,9.15,0,0,0,2.47,6.58,9,9,0,0,0,6.58,2.59A9.41,9.41,0,0,0,270.79,70.9Z"/><path class="cls-1" d="M189.21,31.43A104,104,0,0,1,201.43,28,106.42,106.42,0,0,1,213.93,26a101.45,101.45,0,0,1,12.57-.39L232.91,26c2.09,0.22,4.14.52,6.2,0.77l1.55,0.2,1.54,0.31,3.09,0.61c1,0.22,2.07.36,3.08,0.65l3,0.84,3,0.84c1,0.3,2,.7,3,1,2,0.74,4,1.31,5.86,2.23a105,105,0,0,1,11.22,5.59l5.3,3.36,5.05,3.73,4.72,4.15,4.36,4.54c1.34,1.61,2.62,3.28,3.94,4.92s2.3,3.52,3.45,5.28c0.21,0.39.4,0.79,0.61,1.18h0s0.46,1,1.1,2.51a47.75,47.75,0,0,1,3.49,12.6c0.05,0.59.07,1.15,0.07,1.71,0,0.07,0,.13,0,0.21a50.2,50.2,0,0,1-.53,7.86c-1.43,9.9-6.42,24.35-22.41,35.06-20.72,13.88-22.94,6.27-22.89,2.12,0-.09,0-0.17,0-0.26s0-.22,0-0.32c0-.48.1-1,0.2-1.55h0c0.79-4.06,1.58-8.37,2.35-12.72,1.95-9.51,4-19.56,6.66-33.37H253.74l-3.93,18.87L246,117.35a37.74,37.74,0,0,0-.79,7.53c0,0.41,0,.8-0.06,1.2-6.11,7.31-15.26,10.87-13.37.1,0.92-4.76,1.85-9.86,2.74-15,0.59-3.35,1.17-6.7,1.73-10,2.93-15.59-3.18-22-11.25-21.74-4.86.18-10.42,2.79-15.15,7.34,1.51-9.13,3.36-18.73,5.32-29.69,3.2-17.77-16.75-21.39-29.8-8.37,13-6.23,14.12.27,14.12,0.27h0a9.23,9.23,0,0,1,.17,5c-0.92,4.76-1.85,9.86-2.74,15l-14.16,69.69h16.11l7.58-38,0.65-3.28A30.47,30.47,0,0,1,210,93c4.22-5.36,9.67-8.7,11.43-5.84,0.63,1,.79,2.85.24,5.68l-0.09.53c-1.51,9.13-3.36,18.73-5.32,29.69-3.19,17.71,16.62,21.36,29.67,8.5a11.83,11.83,0,0,0,.62,1.41h0s0.09,0.19.28,0.49a10.61,10.61,0,0,0,1.84,2.37,12.29,12.29,0,0,0,6,3c5.74,1.4,15,0,29.38-10.66,16-11.95,21.55-26.21,23.26-36.69a52.22,52.22,0,0,0,.69-9c0-.46,0-0.9,0-1.31a21.9,21.9,0,0,0-.35-4c0-.29-0.07-0.46-0.08-0.48h0a38.64,38.64,0,0,0-2.13-7.71h0l-0.29-.63c-0.36-.86-0.77-1.77-1.26-2.75-0.25-.55-0.5-1.11-0.76-1.65-1.1-1.87-2.15-3.78-3.3-5.63s-2.51-3.56-3.82-5.3-2.84-3.31-4.3-4.94L287,43.61l-5.08-4.14c-1.76-1.29-3.61-2.46-5.42-3.69s-3.8-2.17-5.69-3.25a28.34,28.34,0,0,0-2.95-1.44l-3-1.34a61.94,61.94,0,0,0-6.12-2.35c-1-.35-2.06-0.74-3.1-1l-3.17-.84-3.17-.84c-1.05-.28-2.14-0.42-3.21-0.64l-3.22-.59-1.61-.3L239.6,23c-2.19-.21-4.38-0.46-6.55-0.63l-6.42-.16a92.45,92.45,0,0,0-13,.88,94,94,0,0,0-12.74,2.61A88.55,88.55,0,0,0,188.65,30a81,81,0,0,0-11.39,6l0.22,0.4A102.57,102.57,0,0,1,189.21,31.43Z"/><path class="cls-1" d="M318.3,154.82q-4.33-7.5-8.73-15l-8.46-14.38q0.51-.84,1-1.69a65.37,65.37,0,0,0,6.81-21.63l-0.75.11a57,57,0,0,1-3.3,11.51,63.11,63.11,0,0,1-6,11.09l-0.37.54,0.33,0.62,8.11,15.3c1.87,3.56,3.78,7.09,5.68,10.63l-11.26-4.84-16.08-6.82-1.17-.5-1.08.82a83.58,83.58,0,0,1-7.33,5.13,85.79,85.79,0,0,1-7.83,4.34c-1.35.63-2.71,1.26-4.07,1.87s-2.74,1.19-4.16,1.67-2.8,1-4.24,1.47-2.86.89-4.3,1.27c-2.89.79-5.81,1.42-8.75,2-1.47.27-3,.46-4.44,0.7s-3,.34-4.47.48c-3,.24-6,0.37-9,0.37l-4.6-.06-4.45-.3c-1.48-.06-3-0.32-4.47-0.49l-2.24-.28-2.22-.4c-3-.48-5.89-1.22-8.81-2l-4.33-1.3-4.26-1.51a85.46,85.46,0,0,1-8.3-3.59l-2-1-2-1.11c-1.32-.74-2.65-1.47-3.9-2.32a88.81,88.81,0,0,1-7.41-5.26c-1.16-1-2.37-1.9-3.49-2.93s-2.23-2.06-3.31-3.14l-3.12-3.35-2.92-3.54-0.37.26,2.63,3.81c0.94,1.22,1.94,2.41,2.9,3.61s2.09,2.28,3.14,3.42,2.23,2.15,3.35,3.23a72.94,72.94,0,0,0,7.28,5.82c1.24,0.94,2.57,1.76,3.88,2.59l2,1.25,2,1.13a88.53,88.53,0,0,0,8.39,4.15c1.44,0.59,2.89,1.2,4.35,1.74l4.44,1.49c3,0.87,6,1.73,9.08,2.32l2.3,0.49,2.32,0.36c1.55,0.22,3.08.54,4.66,0.65l4.72,0.46,4.6,0.2c3.21,0.11,6.29,0,9.44-.22,1.56-.12,3.12-0.29,4.69-0.44s3.11-.41,4.66-0.66a90.87,90.87,0,0,0,9.21-2c1.52-.4,3-0.84,4.52-1.34s3-1,4.45-1.56a88.81,88.81,0,0,0,8.65-3.78,90.44,90.44,0,0,0,8.18-4.72,81.12,81.12,0,0,0,6.6-4.75l15,6.06L316,157.41l4.93,2Z"/></svg>